<svg width="35" height="35" viewBox="0 0 35 35" fill="none" xmlns="http://www.w3.org/2000/svg">
<path d="M2.1875 11.1277V24.4809H6.5625V26.7064H0V2.22553H4.375V0H6.5625V2.22553H19.6875V0H21.875V2.22553H26.25V13.3532H24.0625V11.1277H2.1875ZM4.375 4.45107H2.1875V8.90214H24.0625V4.45107H21.875V6.6766H19.6875V4.45107H6.5625V6.6766H4.375V4.45107ZM35 18.8475C35 19.0793 34.9544 19.3053 34.8633 19.5256C34.7721 19.7458 34.6411 19.9429 34.4702 20.1167C32.1004 22.5277 29.7534 24.9271 27.4292 27.315C25.105 29.7028 22.7523 32.0906 20.3711 34.4784C20.0065 34.8261 19.5793 35 19.0894 35C18.5994 35 18.1836 34.8261 17.8418 34.4784L10.8179 27.3497C10.647 27.1874 10.516 26.9962 10.4248 26.776C10.3337 26.5557 10.2881 26.3181 10.2881 26.0631C10.2881 25.5647 10.4647 25.1358 10.8179 24.7765L13.8428 21.699C14.196 21.3396 14.6175 21.16 15.1074 21.16C15.5859 21.16 16.0018 21.3396 16.355 21.699L19.0894 24.4809L28.9331 14.4834C29.2749 14.1356 29.6908 13.9617 30.1807 13.9617C30.4085 13.9617 30.6364 14.0081 30.8643 14.1008C31.0921 14.1936 31.2915 14.3211 31.4624 14.4834L34.4702 17.5609C34.6297 17.7231 34.755 17.9144 34.8462 18.1346C34.9373 18.3549 34.9886 18.5925 35 18.8475ZM15.1245 28.5494L17.5684 26.0631L15.1074 23.5594L12.6636 26.0631L15.1245 28.5494ZM32.6416 18.8301L30.1807 16.3264C27.9134 18.6446 25.6632 20.9455 23.4302 23.229C21.1971 25.5125 18.9355 27.8134 16.6455 30.1316C17.0557 30.5489 17.4601 30.9662 17.8589 31.3835C18.2577 31.8008 18.6678 32.2181 19.0894 32.6354C21.368 30.3287 23.6296 28.0336 25.874 25.7501C28.1185 23.4666 30.3743 21.16 32.6416 18.8301Z" fill="#FFCD29"/>
</svg>
