<svg width="6" height="26" viewBox="0 0 6 26" fill="none" xmlns="http://www.w3.org/2000/svg">
<path d="M3 14.5C4.10457 14.5 5 13.8284 5 13C5 12.1716 4.10457 11.5 3 11.5C1.89543 11.5 1 12.1716 1 13C1 13.8284 1.89543 14.5 3 14.5Z" stroke="black" stroke-width="2" stroke-linecap="round" stroke-linejoin="round"/>
<path d="M3 4C4.10457 4 5 3.32843 5 2.5C5 1.67157 4.10457 1 3 1C1.89543 1 1 1.67157 1 2.5C1 3.32843 1.89543 4 3 4Z" stroke="black" stroke-width="2" stroke-linecap="round" stroke-linejoin="round"/>
<path d="M3 25C4.10457 25 5 24.3284 5 23.5C5 22.6716 4.10457 22 3 22C1.89543 22 1 22.6716 1 23.5C1 24.3284 1.89543 25 3 25Z" stroke="black" stroke-width="2" stroke-linecap="round" stroke-linejoin="round"/>
</svg>
