<svg width="31" height="31" viewBox="0 0 31 31" fill="none" xmlns="http://www.w3.org/2000/svg">
<path d="M1.89583 18.0208V19.0208H2.89583H5.41667C5.82001 19.0208 6.20684 19.1811 6.49206 19.4663C6.77727 19.7515 6.9375 20.1383 6.9375 20.5417V28.1042C6.9375 28.5075 6.77727 28.8943 6.49206 29.1796C6.20684 29.4648 5.82001 29.625 5.41667 29.625H2.89583C2.49248 29.625 2.10565 29.4648 1.82044 29.1796C1.53523 28.8943 1.375 28.5075 1.375 28.1042V15.5C1.375 13.6451 1.74035 11.8083 2.4502 10.0946C3.16005 8.38087 4.20049 6.82374 5.51212 5.51212C6.82374 4.20049 8.38087 3.16005 10.0946 2.4502C11.8083 1.74035 13.6451 1.375 15.5 1.375C17.3549 1.375 19.1917 1.74035 20.9054 2.4502C22.6191 3.16005 24.1763 4.20049 25.4879 5.51212C26.7995 6.82374 27.8399 8.38087 28.5498 10.0946C29.2596 11.8083 29.625 13.6451 29.625 15.5V28.1042C29.625 28.5075 29.4648 28.8943 29.1796 29.1796C28.8943 29.4648 28.5075 29.625 28.1042 29.625H25.5833C25.18 29.625 24.7932 29.4648 24.5079 29.1796C24.2227 28.8943 24.0625 28.5075 24.0625 28.1042V20.5417C24.0625 20.1383 24.2227 19.7515 24.5079 19.4663C24.7932 19.1811 25.18 19.0208 25.5833 19.0208H28.1042H29.1042V18.0208V15.5C29.1042 11.8919 27.6709 8.43168 25.1196 5.8804C22.5683 3.32912 19.108 1.89583 15.5 1.89583C11.8919 1.89583 8.43168 3.32913 5.8804 5.8804C3.32913 8.43168 1.89583 11.8919 1.89583 15.5V18.0208Z" stroke="#FFCD29" stroke-width="2"/>
</svg>
