<svg width="428" height="122" viewBox="0 0 428 122" fill="none" xmlns="http://www.w3.org/2000/svg">
<path d="M156.13 31.4226L28.7379 70.7117C9.87052 76.5306 -3 93.9687 -3 113.713V127.5H430.5V113.893C430.5 94.0629 417.519 76.57 398.539 70.8239L268.629 31.4931C267.551 31.1667 266.535 30.6606 265.626 29.996L237.453 9.40829C223.955 -0.455708 205.746 -0.884608 191.799 8.33291L158.696 30.2095C157.903 30.7338 157.039 31.1423 156.13 31.4226Z" fill="#6360E1"/>
<path d="M156.13 31.4226L28.7379 70.7117C9.87052 76.5306 -3 93.9687 -3 113.713V127.5H430.5V113.893C430.5 94.0629 417.519 76.57 398.539 70.8239L268.629 31.4931C267.551 31.1667 266.535 30.6606 265.626 29.996L237.453 9.40829C223.955 -0.455708 205.746 -0.884608 191.799 8.33291L158.696 30.2095C157.903 30.7338 157.039 31.1423 156.13 31.4226Z" stroke="#5451DD" stroke-width="2" style="mix-blend-mode:overlay"/>
</svg>
