<svg width="29" height="29" viewBox="0 0 29 29" fill="none" xmlns="http://www.w3.org/2000/svg">
<path d="M2.74227 14.2334C2.77645 12.7397 3.08407 11.2905 3.66171 9.92676C4.25302 8.52539 5.10067 7.271 6.18075 6.1875C7.26083 5.104 8.51864 4.25635 9.92001 3.66504C11.3692 3.05322 12.9073 2.74219 14.4967 2.74219C16.086 2.74219 17.6241 3.05322 19.0699 3.66504C20.4673 4.25513 21.7362 5.11193 22.8057 6.1875C23.1441 6.52588 23.462 6.88477 23.7559 7.26074L21.6983 8.86719C21.6576 8.89868 21.6266 8.94103 21.6089 8.98935C21.5912 9.03768 21.5875 9.09002 21.5982 9.14037C21.6089 9.19071 21.6336 9.23701 21.6695 9.27394C21.7053 9.31087 21.7509 9.33693 21.8009 9.34912L27.8062 10.8188C27.9771 10.8599 28.1446 10.73 28.1446 10.5557L28.172 4.37256C28.172 4.14355 27.9088 4.01367 27.731 4.15723L25.8033 5.66455C23.1749 2.30127 19.087 0.144531 14.4932 0.144531C6.66268 0.144531 0.291589 6.41992 0.144617 14.2197C0.143704 14.2562 0.150103 14.2925 0.163435 14.3265C0.176768 14.3604 0.196765 14.3914 0.222247 14.4175C0.247729 14.4436 0.278182 14.4644 0.311811 14.4786C0.345439 14.4927 0.381563 14.5 0.418054 14.5H2.46884C2.61923 14.5 2.73886 14.3804 2.74227 14.2334ZM28.5821 14.5H26.5313C26.3809 14.5 26.2613 14.6196 26.2579 14.7666C26.2237 16.2603 25.9161 17.7095 25.3385 19.0732C24.7472 20.4746 23.8995 21.7324 22.8194 22.8125C21.7293 23.9072 20.4332 24.7752 19.0059 25.3665C17.5786 25.9578 16.0484 26.2608 14.5035 26.2578C12.9591 26.2607 11.4294 25.9577 10.0027 25.3664C8.57602 24.7751 7.28053 23.9071 6.191 22.8125C5.85262 22.4741 5.53475 22.1152 5.24081 21.7393L7.29842 20.1328C7.33914 20.1013 7.37013 20.059 7.38785 20.0106C7.40556 19.9623 7.40928 19.91 7.39857 19.8596C7.38786 19.8093 7.36315 19.763 7.3273 19.7261C7.29144 19.6891 7.24589 19.6631 7.19589 19.6509L1.19052 18.1812C1.01962 18.1401 0.852136 18.27 0.852136 18.4443L0.82821 24.6309C0.82821 24.8599 1.09139 24.9897 1.26913 24.8462L3.19686 23.3389C5.82528 26.6987 9.91317 28.8555 14.5069 28.8555C22.3409 28.8555 28.7086 22.5767 28.8556 14.7803C28.8565 14.7438 28.8501 14.7075 28.8367 14.6735C28.8234 14.6396 28.8034 14.6086 28.7779 14.5825C28.7524 14.5564 28.722 14.5356 28.6884 14.5214C28.6547 14.5073 28.6186 14.5 28.5821 14.5Z" fill="#110EAF"/>
</svg>
