<svg width="32" height="30" viewBox="0 0 32 30" fill="none" xmlns="http://www.w3.org/2000/svg">
<path d="M13.2656 29.7188C12.8305 29.7188 12.4132 29.5459 12.1055 29.2382C11.7979 28.9305 11.625 28.5132 11.625 28.0781C11.625 27.643 11.7979 27.2257 12.1055 26.918C12.4132 26.6104 12.8305 26.4375 13.2656 26.4375C13.7007 26.4375 14.118 26.6104 14.4257 26.918C14.7334 27.2257 14.9062 27.643 14.9062 28.0781C14.9062 28.5132 14.7334 28.9305 14.4257 29.2382C14.118 29.5459 13.7007 29.7188 13.2656 29.7188ZM24.2031 29.7188C23.768 29.7188 23.3507 29.5459 23.043 29.2382C22.7354 28.9305 22.5625 28.5132 22.5625 28.0781C22.5625 27.643 22.7354 27.2257 23.043 26.918C23.3507 26.6104 23.768 26.4375 24.2031 26.4375C24.6382 26.4375 25.0555 26.6104 25.3632 26.918C25.6709 27.2257 25.8438 27.643 25.8438 28.0781C25.8438 28.5132 25.6709 28.9305 25.3632 29.2382C25.0555 29.5459 24.6382 29.7188 24.2031 29.7188ZM1.78125 2.375C1.49117 2.375 1.21297 2.25977 1.00785 2.05465C0.802734 1.84953 0.6875 1.57133 0.6875 1.28125C0.6875 0.991169 0.802734 0.71297 1.00785 0.507852C1.21297 0.302734 1.49117 0.1875 1.78125 0.1875H7.25C7.50276 0.187653 7.74766 0.275341 7.94307 0.435657C8.13848 0.595973 8.27233 0.81902 8.32187 1.06687L9.45938 6.75H30.2188C30.3819 6.74995 30.543 6.78641 30.6903 6.85669C30.8375 6.92698 30.9671 7.02932 31.0697 7.15621C31.1723 7.2831 31.2451 7.43133 31.283 7.59004C31.3208 7.74875 31.3227 7.91392 31.2884 8.07344L28.0072 23.3859C27.9546 23.6306 27.8198 23.8498 27.6251 24.0071C27.4304 24.1643 27.1877 24.2501 26.9375 24.25H11.625C11.3722 24.2498 11.1273 24.1622 10.9319 24.0018C10.7365 23.8415 10.6027 23.6185 10.5531 23.3706L6.35312 2.375H1.78125ZM12.5219 22.0625H26.0537L28.8669 8.9375H9.89688L12.5219 22.0625Z" fill="#FFCD29"/>
</svg>
