<svg width="16" height="35" viewBox="0 0 16 35" fill="none" xmlns="http://www.w3.org/2000/svg">
<mask id="path-1-outside-1_375_914" maskUnits="userSpaceOnUse" x="0.000488281" y="0.5" width="16" height="34" fill="black">
<rect fill="white" x="0.000488281" y="0.5" width="16" height="34"/>
<path d="M14.0005 32.5V5.83333C14.0005 4.94928 13.6844 4.10143 13.1218 3.47631C12.5592 2.85119 11.7961 2.5 11.0005 2.5H5.00049C4.20484 2.5 3.44178 2.85119 2.87917 3.47631C2.31656 4.10143 2.00049 4.94928 2.00049 5.83333V32.5"/>
</mask>
<path d="M12.0005 32.5C12.0005 33.6046 12.8959 34.5 14.0005 34.5C15.1051 34.5 16.0005 33.6046 16.0005 32.5H12.0005ZM11.0005 2.5V0.5V2.5ZM5.00049 2.5V0.5V2.5ZM2.00049 5.83333H0.000488281H2.00049ZM0.000488281 32.5C0.000488281 33.6046 0.895919 34.5 2.00049 34.5C3.10506 34.5 4.00049 33.6046 4.00049 32.5H0.000488281ZM16.0005 32.5V5.83333H12.0005V32.5H16.0005ZM16.0005 5.83333C16.0005 4.48288 15.5196 3.15082 14.6084 2.13838L11.6352 4.81424C11.8492 5.05204 12.0005 5.41568 12.0005 5.83333H16.0005ZM14.6084 2.13838C13.6909 1.11899 12.3986 0.5 11.0005 0.5V4.5C11.1936 4.5 11.4275 4.58339 11.6352 4.81424L14.6084 2.13838ZM11.0005 0.5H5.00049V4.5H11.0005V0.5ZM5.00049 0.5C3.60233 0.5 2.31003 1.11899 1.39258 2.13838L4.36576 4.81424C4.57352 4.58339 4.80735 4.5 5.00049 4.5V0.5ZM1.39258 2.13838C0.481382 3.15082 0.000488281 4.48288 0.000488281 5.83333H4.00049C4.00049 5.41568 4.15174 5.05204 4.36576 4.81424L1.39258 2.13838ZM0.000488281 5.83333V32.5H4.00049V5.83333H0.000488281Z" fill="#FFCD29" mask="url(#path-1-outside-1_375_914)"/>
</svg>
